<?xml version="1.0" encoding="UTF-8" standalone="no"?>
<!-- Generator: Adobe Illustrator 19.0.0, SVG Export Plug-In . SVG Version: 6.00 Build 0)  -->

<svg
   xmlns:dc="http://purl.org/dc/elements/1.1/"
   xmlns:cc="http://creativecommons.org/ns#"
   xmlns:rdf="http://www.w3.org/1999/02/22-rdf-syntax-ns#"
   xmlns:svg="http://www.w3.org/2000/svg"
   xmlns="http://www.w3.org/2000/svg"
   xmlns:sodipodi="http://sodipodi.sourceforge.net/DTD/sodipodi-0.dtd"
   xmlns:inkscape="http://www.inkscape.org/namespaces/inkscape"
   version="1.1"
   id="Layer_1"
   x="0px"
   y="0px"
   viewBox="0 0 512.001 512.001"
   style="enable-background:new 0 0 512.001 512.001;"
   xml:space="preserve"
   sodipodi:docname="logo.svg"
   inkscape:version="0.92.4 (5da689c313, 2019-01-14)"><metadata
   id="metadata43"><rdf:RDF><cc:Work
       rdf:about=""><dc:format>image/svg+xml</dc:format><dc:type
         rdf:resource="http://purl.org/dc/dcmitype/StillImage" /><dc:title /></cc:Work></rdf:RDF></metadata><defs
   id="defs41" /><sodipodi:namedview
   pagecolor="#ffffff"
   bordercolor="#666666"
   borderopacity="1"
   objecttolerance="10"
   gridtolerance="10"
   guidetolerance="10"
   inkscape:pageopacity="0"
   inkscape:pageshadow="2"
   inkscape:window-width="1024"
   inkscape:window-height="744"
   id="namedview39"
   showgrid="false"
   inkscape:zoom="0.92187324"
   inkscape:cx="241.84084"
   inkscape:cy="258.80897"
   inkscape:window-x="0"
   inkscape:window-y="0"
   inkscape:window-maximized="1"
   inkscape:current-layer="g1043"
   showguides="false" />
<g
   id="g6">
	
<flowRoot
   xml:space="preserve"
   id="flowRoot858"
   style="fill:black;fill-opacity:1;stroke:none;font-family:sans-serif;font-style:normal;font-weight:normal;font-size:40px;line-height:1.25;letter-spacing:0px;word-spacing:0px"><flowRegion
     id="flowRegion860"><rect
       id="rect862"
       width="889.75775"
       height="724.07874"
       x="-208.63286"
       y="-184.46457" /></flowRegion><flowPara
     id="flowPara864" /></flowRoot><g
   id="g1083"
   transform="translate(0,80)"><g
     id="g1015"><g
       style="stroke:#fffafa;stroke-width:33.09999847;stroke-linecap:butt;stroke-linejoin:round;stroke-miterlimit:4;stroke-dasharray:none;stroke-opacity:0.99549549;paint-order:normal"
       id="g1025"><text
   transform="scale(1.0592995,0.94402005)"
   id="text868"
   y="203.36006"
   x="31.825918"
   style="font-style:normal;font-weight:normal;font-size:5.43355894px;line-height:1.25;font-family:sans-serif;letter-spacing:0px;word-spacing:0px;fill:#000000;fill-opacity:1;stroke:#fffafa;stroke-width:33.10000229;stroke-linecap:butt;stroke-linejoin:round;stroke-miterlimit:4;stroke-dasharray:none;stroke-opacity:0.99549549;paint-order:normal"
   xml:space="preserve"><tspan
     style="font-style:italic;font-variant:normal;font-weight:bold;font-stretch:normal;font-size:98.52853394px;font-family:'Lobster Two';-inkscape-font-specification:'Lobster Two Bold Italic';stroke:#fffafa;stroke-width:33.10000229;stroke-linecap:butt;stroke-linejoin:round;stroke-miterlimit:4;stroke-dasharray:none;stroke-opacity:0.99549549;paint-order:normal"
     y="203.36006"
     x="31.825918"
     id="tspan866"
     sodipodi:role="line"><tspan
   id="tspan870"
   style="font-size:98.52853394px;fill:#00ff72;fill-opacity:1;stroke:#fffafa;stroke-width:33.10000229;stroke-linecap:butt;stroke-linejoin:round;stroke-miterlimit:4;stroke-dasharray:none;stroke-opacity:0.99549549;paint-order:normal">Frut</tspan>me</tspan></text>


<g
   style="stroke:#fffafa;stroke-width:51.25884628;stroke-linecap:butt;stroke-linejoin:round;stroke-miterlimit:4;stroke-dasharray:none;stroke-opacity:0.99549549;paint-order:normal"
   transform="matrix(0.64275948,0,0,0.64873879,122.47314,57.575513)"
   id="g1003"><g
   id="g4"
   style="fill:#f55d2c;fill-opacity:1;stroke:#fffafa;stroke-width:309.79489136;stroke-linecap:butt;stroke-linejoin:round;stroke-miterlimit:4;stroke-dasharray:none;stroke-opacity:0.99549549;paint-order:normal"
   transform="matrix(-0.15605592,0,0,0.17543202,429.20912,97.152514)">
		<path
   d="m 469.333,32 c -20.629,0 -37.845,14.656 -41.792,34.112 l -25.685,8.555 H 53.739 c -16.917,0 -32.512,7.659 -42.731,20.992 -10.155,13.248 -13.504,30.144 -9.088,46.549 l 41.472,148.587 c 6.315,23.403 27.648,39.744 51.84,39.744 l 267.413,0.128 h 0.021 c 17.643,0 32,14.357 32,32 0,17.643 -14.357,32 -32,32 h -3.925 C 349.909,369.899 326.443,352 298.667,352 c -27.776,0 -51.243,17.899 -60.075,42.667 H 166.741 C 157.909,369.899 134.443,352 106.667,352 78.891,352 55.424,369.899 46.592,394.667 H 21.333 C 9.536,394.667 0,404.224 0,416 c 0,11.776 9.536,21.333 21.333,21.333 H 46.592 C 55.424,462.102 78.891,480 106.667,480 c 27.776,0 51.243,-17.899 60.075,-42.667 h 71.851 c 8.831,24.769 32.298,42.667 60.074,42.667 27.776,0 51.243,-17.899 60.075,-42.667 h 3.925 c 41.173,0 74.667,-33.493 74.667,-74.667 0,-32.32 -20.779,-59.648 -49.579,-70.016 l 36.075,-180.33 17.387,-5.781 c 7.531,6.635 17.301,10.795 28.117,10.795 23.552,0 42.667,-19.093 42.667,-42.667 C 512,51.094 492.885,32 469.333,32 Z"
   id="path2"
   style="fill:#f55d2c;fill-opacity:1;stroke:#fffafa;stroke-width:309.79489136;stroke-linecap:butt;stroke-linejoin:round;stroke-miterlimit:4;stroke-dasharray:none;stroke-opacity:0.99549549;paint-order:normal"
   inkscape:connector-curvature="0" />
	</g><text
   id="text890"
   y="220.15265"
   x="331.33582"
   style="font-style:normal;font-weight:normal;font-size:6.61842346px;line-height:1.25;font-family:sans-serif;letter-spacing:0px;word-spacing:0px;fill:#f55d2c;fill-opacity:1;stroke:#fffafa;stroke-width:51.25884628;stroke-linecap:butt;stroke-linejoin:round;stroke-miterlimit:4;stroke-dasharray:none;stroke-opacity:0.99549549;paint-order:normal"
   xml:space="preserve"
   transform="scale(0.94316069,1.0602647)"><tspan
     style="font-style:italic;font-variant:normal;font-weight:bold;font-stretch:normal;font-size:75.89125061px;font-family:'Lobster Two';-inkscape-font-specification:'Lobster Two Bold Italic';fill:#f55d2c;fill-opacity:1;stroke:#fffafa;stroke-width:51.25884628;stroke-linecap:butt;stroke-linejoin:round;stroke-miterlimit:4;stroke-dasharray:none;stroke-opacity:0.99549549;paint-order:normal"
     y="220.15265"
     x="331.33582"
     id="tspan888"
     sodipodi:role="line">Super</tspan></text>


</g></g><g
       id="g1043"
       style="stroke:none;stroke-width:53.09999847;stroke-linecap:butt;stroke-linejoin:round;stroke-miterlimit:4;stroke-dasharray:none;stroke-opacity:0.99549549;paint-order:normal"><text
   xml:space="preserve"
   style="font-style:normal;font-weight:normal;font-size:5.43355894px;line-height:1.25;font-family:sans-serif;letter-spacing:0px;word-spacing:0px;fill:#000000;fill-opacity:1;stroke:none;stroke-width:53.10000229;stroke-linecap:butt;stroke-linejoin:round;stroke-miterlimit:4;stroke-dasharray:none;stroke-opacity:0.99549549;paint-order:normal"
   x="31.825918"
   y="203.36006"
   id="text1031"
   transform="scale(1.0592995,0.94402005)"><tspan
     sodipodi:role="line"
     id="tspan1029"
     x="31.825918"
     y="203.36006"
     style="font-style:italic;font-variant:normal;font-weight:bold;font-stretch:normal;font-size:98.52853394px;font-family:'Lobster Two';-inkscape-font-specification:'Lobster Two Bold Italic';stroke:none;stroke-width:53.10000229;stroke-linecap:butt;stroke-linejoin:round;stroke-miterlimit:4;stroke-dasharray:none;stroke-opacity:0.99549549;paint-order:normal"><tspan
   style="font-size:98.52853394px;fill:#2adc7a;fill-opacity:1;stroke:none;stroke-width:53.10000229;stroke-linecap:butt;stroke-linejoin:round;stroke-miterlimit:4;stroke-dasharray:none;stroke-opacity:0.99549549;paint-order:normal"
   id="tspan1027">Frut</tspan>me</tspan></text>


<g
   id="g1041"
   transform="matrix(0.64275948,0,0,0.64873879,122.47314,57.575513)"
   style="stroke:none;stroke-width:82.23095703;stroke-linecap:butt;stroke-linejoin:round;stroke-miterlimit:4;stroke-dasharray:none;stroke-opacity:0.99549549;paint-order:normal"><g
   transform="matrix(-0.15605592,0,0,0.17543202,429.20912,97.152514)"
   style="fill:#f55d2c;fill-opacity:1;stroke:none;stroke-width:496.98214722;stroke-linecap:butt;stroke-linejoin:round;stroke-miterlimit:4;stroke-dasharray:none;stroke-opacity:0.99549549;paint-order:normal"
   id="g1035">
		<path
   inkscape:connector-curvature="0"
   style="fill:#f55d2c;fill-opacity:1;stroke:none;stroke-width:496.98214722;stroke-linecap:butt;stroke-linejoin:round;stroke-miterlimit:4;stroke-dasharray:none;stroke-opacity:0.99549549;paint-order:normal"
   id="path1033"
   d="m 469.333,32 c -20.629,0 -37.845,14.656 -41.792,34.112 l -25.685,8.555 H 53.739 c -16.917,0 -32.512,7.659 -42.731,20.992 -10.155,13.248 -13.504,30.144 -9.088,46.549 l 41.472,148.587 c 6.315,23.403 27.648,39.744 51.84,39.744 l 267.413,0.128 h 0.021 c 17.643,0 32,14.357 32,32 0,17.643 -14.357,32 -32,32 h -3.925 C 349.909,369.899 326.443,352 298.667,352 c -27.776,0 -51.243,17.899 -60.075,42.667 H 166.741 C 157.909,369.899 134.443,352 106.667,352 78.891,352 55.424,369.899 46.592,394.667 H 21.333 C 9.536,394.667 0,404.224 0,416 c 0,11.776 9.536,21.333 21.333,21.333 H 46.592 C 55.424,462.102 78.891,480 106.667,480 c 27.776,0 51.243,-17.899 60.075,-42.667 h 71.851 c 8.831,24.769 32.298,42.667 60.074,42.667 27.776,0 51.243,-17.899 60.075,-42.667 h 3.925 c 41.173,0 74.667,-33.493 74.667,-74.667 0,-32.32 -20.779,-59.648 -49.579,-70.016 l 36.075,-180.33 17.387,-5.781 c 7.531,6.635 17.301,10.795 28.117,10.795 23.552,0 42.667,-19.093 42.667,-42.667 C 512,51.094 492.885,32 469.333,32 Z" />
	</g><text
   transform="scale(0.94316069,1.0602647)"
   xml:space="preserve"
   style="font-style:normal;font-weight:normal;font-size:6.61842346px;line-height:1.25;font-family:sans-serif;letter-spacing:0px;word-spacing:0px;fill:#f55d2c;fill-opacity:1;stroke:none;stroke-width:82.23095703;stroke-linecap:butt;stroke-linejoin:round;stroke-miterlimit:4;stroke-dasharray:none;stroke-opacity:0.99549549;paint-order:normal"
   x="331.33582"
   y="220.15265"
   id="text1039"><tspan
     sodipodi:role="line"
     id="tspan1037"
     x="331.33582"
     y="220.15265"
     style="font-style:italic;font-variant:normal;font-weight:bold;font-stretch:normal;font-size:75.89125061px;font-family:'Lobster Two';-inkscape-font-specification:'Lobster Two Bold Italic';fill:#f55d2c;fill-opacity:1;stroke:none;stroke-width:82.23095703;stroke-linecap:butt;stroke-linejoin:round;stroke-miterlimit:4;stroke-dasharray:none;stroke-opacity:0.99549549;paint-order:normal">Super</tspan></text>


</g><g
   id="g146"
   transform="matrix(0.26859832,0.22480533,-0.19407489,0.30823665,685.92513,223.0813)"><path
     style="fill:#9da1a1"
     d="m -892.45078,361.12218 c -9.68929,-1.7448 -23.23567,-6.15316 -27.27719,-8.87674 -4.14244,-2.79159 -6.2034,-6.54124 -5.38581,-9.79878 0.3545,-1.41241 2.44869,-4.96912 4.65377,-7.9038 2.20508,-2.93468 4.00923,-6.08102 4.00923,-6.99186 0,-0.91083 -1.17011,-4.21193 -2.60025,-7.33576 -1.94748,-4.25385 -2.43783,-6.54547 -1.95327,-9.12841 0.5766,-3.07353 1.34937,-3.92669 6.35104,-7.01177 0.16364,-0.10094 1.5841,-5.07463 3.15657,-11.05266 11.19994,-42.57836 32.6935,-68.73419 62.81235,-76.43729 18.80798,-4.81028 38.75086,-0.12191 51.74122,12.16382 2.85207,2.69738 5.65317,4.90432 6.22466,4.90432 0.57148,0 2.328,-0.67223 3.90337,-1.49384 3.24913,-1.69454 9.04949,-1.95655 12.68812,-0.57315 3.87252,1.47233 9.60217,7.00157 11.87796,11.46249 6.07975,11.91729 -1.43049,26.4832 -15.20177,29.48347 -8.9789,1.95618 -18.9513,-2.10918 -24.13267,-9.83794 -2.68977,-4.01218 -2.98456,-5.14882 -2.53129,-9.75988 l 0.51302,-5.21884 -3.4312,-0.6437 c -8.36499,-1.56928 -18.41786,2.83481 -18.41786,8.06874 0,3.69263 5.31476,12.79706 14.07113,24.10451 4.46962,5.77179 9.66769,13.05343 11.55127,16.18142 2.93884,4.88042 4.01099,5.83192 7.55745,6.70699 2.50988,0.61929 4.90736,2.06469 6.1053,3.68077 1.70004,2.29346 1.8131,3.11837 0.81845,5.97163 -0.63475,1.82082 -2.35985,4.56914 -3.83357,6.10737 -2.6213,2.73605 -2.64247,2.85946 -0.97476,5.68266 3.51425,5.94915 1.34431,14.01032 -5.04241,18.73223 -10.10206,7.46877 -34.11852,15.41412 -57.03289,18.86813 -11.86908,1.7891 -30.12054,1.76453 -40.21997,-0.0541 z m 91.84987,-31.59528 c 2.83257,-1.17717 5.15013,-2.7553 5.15013,-3.50698 0,-1.76253 0.18008,-1.79628 -6.33778,1.1877 -3.06871,1.4049 -8.41059,3.20711 -11.87085,4.00491 l -6.29137,1.45054 7.09987,-0.49794 c 3.90493,-0.27387 9.41743,-1.46107 12.25,-2.63823 z m -29.93623,-13.25252 c 10.34418,-1.41916 27.86263,-6.17819 26.76884,-7.27199 -0.24441,-0.2444 -4.88545,0.67226 -10.31343,2.03703 -16.14524,4.05944 -26.02647,5.60972 -36.22952,5.68412 -5.30174,0.0386 -8.84264,0.38533 -7.86867,0.7704 2.69354,1.0649 14.92468,0.52529 27.64278,-1.21956 z m -34.64461,-0.27707 c -0.67703,-0.27392 -2.02703,-0.29059 -3,-0.0371 -0.97297,0.25354 -0.41903,0.47766 1.23097,0.49804 1.65,0.0204 2.44606,-0.18706 1.76903,-0.46099 z m -18.26903,-3.36668 c -13.58156,-3.12689 -26.91243,-5.39829 -27.60688,-4.70383 -0.37038,0.37038 9.3315,2.53589 29.60688,6.6084 10.87602,2.18455 9.31841,0.70127 -2,-1.90457 z m 90.5,-4.97738 c 0.33992,-0.55 -0.11008,-1 -1,-1 -0.88992,0 -1.33992,0.45 -1,1 0.33992,0.55 0.78992,1 1,1 0.21008,0 0.66008,-0.45 1,-1 z m 21.86141,-42.32649 c 4.80271,-3.66321 6.63859,-7.4573 6.63859,-13.71956 0,-9.43389 -6.1613,-15.44505 -15.68967,-15.30732 -7.33222,0.10599 -8.20497,1.15619 -6.03595,7.2632 3.13035,8.81369 2.34256,9.83591 -5.91783,7.67882 -3.13872,-0.81963 -6.07797,-1.26082 -6.53166,-0.98043 -1.41593,0.8751 -0.90247,7.34374 0.78768,9.92324 0.88691,1.35359 3.47441,3.84658 5.75,5.53997 3.81144,2.83631 4.65826,3.05132 10.74778,2.72893 5.36254,-0.2839 7.2976,-0.87414 10.25106,-3.12685 z"
     id="path127"
     inkscape:connector-curvature="0" /><path
     style="fill:#62bf91"
     d="m -885.95078,360.55667 c -13.50682,-1.6114 -28.5,-6.35733 -28.5,-9.02137 0,-0.58663 -0.9,-2.21076 -2,-3.60918 -1.1,-1.39842 -2,-3.18159 -2,-3.9626 0,-1.0688 4.65199,-8.77079 8.49882,-14.07095 0.10406,-0.14337 2.11597,0.41913 4.47092,1.25 6.35516,2.24223 6.95032,1.84647 1.97604,-1.31399 -8.26645,-5.25217 -12.99323,-12.29976 -11.46942,-17.10083 0.92991,-2.9299 4.28983,-3.44521 11.11479,-1.70467 16.11887,4.11072 41.32988,7.63017 54.65744,7.63017 12.94628,0 29.75289,-2.6299 41.12811,-6.43574 10.57488,-3.53806 14.04902,-4.09284 18.3733,-2.93397 3.22387,0.86396 2.8642,4.40708 -0.80414,7.92158 -1.68125,1.61074 -2.8665,3.64359 -2.63672,4.52228 0.31134,1.19058 -0.15055,1.48766 -1.81752,1.169 -1.22922,-0.23498 -3.64718,0.30305 -5.37324,1.19563 -5.20609,2.69218 -15.35452,5.53461 -19.80936,5.54832 -4.42235,0.0136 -6.50229,1.59399 -4.18714,3.18147 0.75797,0.51973 5.32775,0.75022 10.15506,0.51221 7.31566,-0.36071 9.85466,-0.96331 15.25,-3.61943 3.56019,-1.75267 6.48737,-3.72098 6.50486,-4.37401 0.0637,-2.37808 2.96809,2.76926 2.96446,5.25379 -0.0157,10.73499 -18.58315,19.92931 -55.49626,27.48086 -14.04511,2.87331 -29.74876,3.82373 -41,2.48143 z m -33.11706,-9.48671 c -3.9205,-1.93411 -5.67879,-5.50838 -4.38445,-8.91275 0.52361,-1.37718 1.17402,-2.50396 1.44537,-2.50396 0.27136,0 0.24784,0.63984 -0.0522,1.42186 -0.6771,1.7645 1.05169,5.21926 4.41767,8.82814 2.9501,3.16299 2.82598,3.26452 -1.42634,1.16671 z m -0.38294,-39.29427 c 0,-2.66742 2.42143,-6.03434 3.53729,-4.91848 0.54759,0.54759 -2.28884,7.79604 -3.05071,7.79604 -0.26762,0 -0.48658,-1.2949 -0.48658,-2.87756 z m 49,1.37899 c -4.125,-0.71143 -12.45,-2.43839 -18.5,-3.83767 -6.05,-1.39929 -13.8125,-2.85419 -17.25,-3.23313 -4.81853,-0.53116 -6.24791,-1.06019 -6.24088,-2.3098 0.0189,-3.35717 5.13881,-21.57927 8.53141,-30.36383 8.87362,-22.97673 23.41805,-40.83658 40.45947,-49.68226 10.99912,-5.7093 17.869,-7.47146 29,-7.43863 15.40591,0.0454 27.02589,4.43161 37.03647,13.98008 3.10439,2.9611 6.16617,5.38381 6.80394,5.38381 0.63778,0 1.15959,0.86269 1.15959,1.91709 0,1.05441 0.91785,4.05835 2.03967,6.67545 3.00022,6.99923 2.28331,7.72309 -5.15958,5.20959 l -6.22003,-2.10054 -1.96319,2.3992 c -1.88432,2.30284 -1.93582,2.31128 -1.28197,0.21011 0.93631,-3.00885 -1.8138,-4.31129 -9.09916,-4.30935 -10.352,0.003 -16.31087,4.88041 -14.93327,12.22366 0.74023,3.94574 6.87625,13.58894 16.99779,26.71326 3.57929,4.64116 7.3166,10.04116 8.30515,12 2.76253,5.47405 4.39172,7.06153 7.24707,7.06153 2.7954,0 7.06752,2.47026 7.06752,4.08664 0,0.53528 -1.3542,-0.028 -3.00934,-1.25167 l -3.00934,-2.2249 -15.24066,3.36087 c -31.23109,6.88709 -31.93167,6.99776 -43.74066,6.90974 -6.325,-0.0472 -14.875,-0.66781 -19,-1.37925 z m 78.5,-43.91879 c -1.65,-0.73649 -4.35,-2.80378 -6,-4.59398 l -3,-3.25491 4.60495,3.38312 c 2.53273,1.86072 5.45773,3.91917 6.5,4.57432 2.52649,1.5881 1.58769,1.53969 -2.10495,-0.10855 z m 19,-0.21301 c 0.55,-0.48135 2.79906,-2.44893 4.9979,-4.37241 l 3.99791,-3.49722 -2.99791,3.33606 c -1.64884,1.83483 -3.8979,3.80241 -4.9979,4.3724 -1.1,0.57 -1.55,0.64252 -1,0.16117 z m -15.04157,-34.30237 c 1.20334,-1.94705 7.90752,-3.08112 11.8231,-1.99997 2.04516,0.56469 3.71847,1.18956 3.71847,1.38858 0,0.19903 -2.3625,0.29038 -5.25,0.203 -2.8875,-0.0874 -6.5252,0.19667 -8.08379,0.63121 -1.84558,0.51456 -2.61548,0.43686 -2.20778,-0.22282 z"
     id="path125"
     inkscape:connector-curvature="0" /><path
     style="fill:#e73640"
     d="m -885.45078,360.60384 c -13.25218,-1.60684 -29.54982,-6.37471 -27.05682,-7.91547 0.83521,-0.51619 0.42925,-1.62749 -1.37993,-3.77758 -1.40979,-1.67544 -2.56325,-3.8873 -2.56325,-4.91524 0,-1.76565 6.47736,-12.3423 7.55869,-12.3423 0.27805,0 2.12105,0.675 4.09555,1.5 4.53912,1.89656 8.34576,1.9401 8.34576,0.0955 0,-0.7725 -2.38929,-2.75298 -5.30953,-4.40106 -7.37188,-4.16043 -11.89065,-9.48359 -11.49648,-13.54298 0.28132,-2.89711 0.58845,-3.14414 3.80601,-3.06124 1.925,0.0496 10.25,1.47663 18.5,3.17118 34.91489,7.17154 58.6601,6.69703 83.00317,-1.65869 9.00321,-3.09034 16.82622,-3.99675 18.00691,-2.08636 0.34546,0.55897 1.04702,0.75742 1.55902,0.44098 2.24296,-1.38622 0.64884,2.43876 -2.12324,5.09458 -1.67978,1.60933 -2.86978,3.63104 -2.64446,4.4927 0.31785,1.21544 -0.22817,1.47302 -2.43565,1.14903 -1.56494,-0.22968 -2.5754,-0.85437 -2.24548,-1.3882 0.32992,-0.53383 -0.85083,-0.22041 -2.62389,0.69647 -5.58017,2.88562 -11.24932,4.63956 -18.99638,5.87716 -6.45446,1.0311 -7.54338,1.4975 -7.81118,3.34565 -0.54541,3.76407 9.51726,5.42245 19.51196,3.21568 7.39743,-1.63331 15.83487,-6.24236 15.62314,-8.53431 -0.17129,-1.85424 -0.13731,-1.85329 1.25,0.0351 3.15573,4.29548 0.76174,10.85438 -5.65968,15.50604 -5.07576,3.67686 -18.64017,9.37198 -20.56373,8.63384 -0.79991,-0.30696 -1.20739,-0.15846 -0.90551,0.32999 0.30188,0.48846 -1.36225,1.09634 -3.69806,1.35086 -5.46438,0.59542 -24.09266,4.9884 -24.74694,5.83591 -1.89823,2.45881 -27.06607,4.29982 -39,2.85282 z m 4.72917,-1.55476 c -0.33229,-0.33229 -1.19479,-0.36781 -1.91667,-0.0789 -0.79773,0.31922 -0.56078,0.55618 0.60417,0.60416 1.05416,0.0434 1.64479,-0.19293 1.3125,-0.52522 z m 19.53986,-0.0518 c -0.67703,-0.27392 -2.02703,-0.29059 -3,-0.0371 -0.97297,0.25354 -0.41903,0.47766 1.23097,0.49804 1.65,0.0204 2.44606,-0.18706 1.76903,-0.46099 z m -27.53986,-0.94823 c -0.33229,-0.33229 -1.19479,-0.36781 -1.91667,-0.0789 -0.79773,0.31922 -0.56078,0.55618 0.60417,0.60416 1.05416,0.0434 1.64479,-0.19293 1.3125,-0.52522 z m 36.52083,-0.0581 c -0.6875,-0.27741 -1.8125,-0.27741 -2.5,0 -0.6875,0.27741 -0.125,0.50439 1.25,0.50439 1.375,0 1.9375,-0.22698 1.25,-0.50439 z m -66.86706,-6.92101 c -3.9205,-1.93411 -5.67879,-5.50838 -4.38445,-8.91275 0.52361,-1.37718 1.17402,-2.50396 1.44537,-2.50396 0.27136,0 0.24784,0.63984 -0.0522,1.42186 -0.6771,1.7645 1.05169,5.21926 4.41767,8.82814 2.9501,3.16299 2.82598,3.26452 -1.42634,1.16671 z m -0.38294,-39.29427 c 0,-2.66742 2.42143,-6.03434 3.53729,-4.91848 0.54759,0.54759 -2.28884,7.79604 -3.05071,7.79604 -0.26762,0 -0.48658,-1.2949 -0.48658,-2.87756 z m 49,1.37899 c -4.125,-0.71143 -12.45,-2.43839 -18.5,-3.83767 -6.05,-1.39929 -13.8125,-2.85419 -17.25,-3.23313 -4.81853,-0.53116 -6.24791,-1.06019 -6.24088,-2.3098 0.0189,-3.35717 5.13881,-21.57927 8.53141,-30.36383 8.87362,-22.97673 23.41805,-40.83658 40.45947,-49.68226 10.99912,-5.7093 17.869,-7.47146 29,-7.43863 15.40591,0.0454 27.02589,4.43161 37.03647,13.98008 3.10439,2.9611 6.16617,5.38381 6.80394,5.38381 0.63778,0 1.15959,0.86269 1.15959,1.91709 0,1.05441 0.91785,4.05835 2.03967,6.67545 3.00022,6.99923 2.28331,7.72309 -5.15958,5.20959 l -6.22003,-2.10054 -1.96319,2.3992 c -1.88432,2.30284 -1.93582,2.31128 -1.28197,0.21011 0.93631,-3.00885 -1.8138,-4.31129 -9.09916,-4.30935 -10.352,0.003 -16.31087,4.88041 -14.93327,12.22366 0.74023,3.94574 6.87625,13.58894 16.99779,26.71326 3.57929,4.64116 7.3166,10.04116 8.30515,12 2.76253,5.47405 4.39172,7.06153 7.24707,7.06153 2.7954,0 7.06752,2.47026 7.06752,4.08664 0,0.53528 -1.3542,-0.028 -3.00934,-1.25167 l -3.00934,-2.2249 -15.24066,3.36087 c -31.23109,6.88709 -31.93167,6.99776 -43.74066,6.90974 -6.325,-0.0472 -14.875,-0.66781 -19,-1.37925 z m 78.5,-43.91879 c -1.65,-0.73649 -4.35,-2.80378 -6,-4.59398 l -3,-3.25491 4.60495,3.38312 c 2.53273,1.86072 5.45773,3.91917 6.5,4.57432 2.52649,1.5881 1.58769,1.53969 -2.10495,-0.10855 z m 19,-0.21301 c 0.55,-0.48135 2.79906,-2.44893 4.9979,-4.37241 l 3.99791,-3.49722 -2.99791,3.33606 c -1.64884,1.83483 -3.8979,3.80241 -4.9979,4.3724 -1.1,0.57 -1.55,0.64252 -1,0.16117 z m -15.04157,-34.30237 c 1.20334,-1.94705 7.90752,-3.08112 11.8231,-1.99997 2.04516,0.56469 3.71847,1.18956 3.71847,1.38858 0,0.19903 -2.3625,0.29038 -5.25,0.203 -2.8875,-0.0874 -6.5252,0.19667 -8.08379,0.63121 -1.84558,0.51456 -2.61548,0.43686 -2.20778,-0.22282 z"
     id="path123"
     inkscape:connector-curvature="0" /><path
     style="fill:#ffffff"
     d="m -885.45078,360.60384 c -13.25218,-1.60684 -29.54982,-6.37471 -27.05682,-7.91547 0.83521,-0.51619 0.42925,-1.62749 -1.37993,-3.77758 -1.40979,-1.67544 -2.56325,-3.8873 -2.56325,-4.91524 0,-1.76565 6.47736,-12.3423 7.55869,-12.3423 0.27805,0 2.12105,0.675 4.09555,1.5 4.53912,1.89656 8.34576,1.9401 8.34576,0.0955 0,-0.7725 -2.38929,-2.75298 -5.30953,-4.40106 -7.37188,-4.16043 -11.89065,-9.48359 -11.49648,-13.54298 0.28132,-2.89711 0.58845,-3.14414 3.80601,-3.06124 1.925,0.0496 10.25,1.47663 18.5,3.17118 34.91489,7.17154 58.6601,6.69703 83.00317,-1.65869 9.00321,-3.09034 16.82622,-3.99675 18.00691,-2.08636 0.34546,0.55897 1.04702,0.75742 1.55902,0.44098 2.24296,-1.38622 0.64884,2.43876 -2.12324,5.09458 -1.67978,1.60933 -2.86978,3.63104 -2.64446,4.4927 0.31785,1.21544 -0.22817,1.47302 -2.43565,1.14903 -1.56494,-0.22968 -2.5754,-0.85437 -2.24548,-1.3882 0.32992,-0.53383 -0.85083,-0.22041 -2.62389,0.69647 -5.58017,2.88562 -11.24932,4.63956 -18.99638,5.87716 -6.45446,1.0311 -7.54338,1.4975 -7.81118,3.34565 -0.54541,3.76407 9.51726,5.42245 19.51196,3.21568 7.39743,-1.63331 15.83487,-6.24236 15.62314,-8.53431 -0.17129,-1.85424 -0.13731,-1.85329 1.25,0.0351 3.15573,4.29548 0.76174,10.85438 -5.65968,15.50604 -5.07576,3.67686 -18.64017,9.37198 -20.56373,8.63384 -0.79991,-0.30696 -1.20739,-0.15846 -0.90551,0.32999 0.30188,0.48846 -1.36225,1.09634 -3.69806,1.35086 -5.46438,0.59542 -24.09266,4.9884 -24.74694,5.83591 -1.89823,2.45881 -27.06607,4.29982 -39,2.85282 z m 4.72917,-1.55476 c -0.33229,-0.33229 -1.19479,-0.36781 -1.91667,-0.0789 -0.79773,0.31922 -0.56078,0.55618 0.60417,0.60416 1.05416,0.0434 1.64479,-0.19293 1.3125,-0.52522 z m 19.53986,-0.0518 c -0.67703,-0.27392 -2.02703,-0.29059 -3,-0.0371 -0.97297,0.25354 -0.41903,0.47766 1.23097,0.49804 1.65,0.0204 2.44606,-0.18706 1.76903,-0.46099 z m -27.53986,-0.94823 c -0.33229,-0.33229 -1.19479,-0.36781 -1.91667,-0.0789 -0.79773,0.31922 -0.56078,0.55618 0.60417,0.60416 1.05416,0.0434 1.64479,-0.19293 1.3125,-0.52522 z m 36.52083,-0.0581 c -0.6875,-0.27741 -1.8125,-0.27741 -2.5,0 -0.6875,0.27741 -0.125,0.50439 1.25,0.50439 1.375,0 1.9375,-0.22698 1.25,-0.50439 z m -66.86706,-6.92101 c -3.9205,-1.93411 -5.67879,-5.50838 -4.38445,-8.91275 0.52361,-1.37718 1.17402,-2.50396 1.44537,-2.50396 0.27136,0 0.24784,0.63984 -0.0522,1.42186 -0.6771,1.7645 1.05169,5.21926 4.41767,8.82814 2.9501,3.16299 2.82598,3.26452 -1.42634,1.16671 z m -0.38294,-39.29427 c 0,-2.66742 2.42143,-6.03434 3.53729,-4.91848 0.54759,0.54759 -2.28884,7.79604 -3.05071,7.79604 -0.26762,0 -0.48658,-1.2949 -0.48658,-2.87756 z m 49,1.37899 c -4.125,-0.71143 -12.45,-2.43839 -18.5,-3.83767 -6.05,-1.39929 -13.8125,-2.85419 -17.25,-3.23313 -4.81853,-0.53116 -6.24791,-1.06019 -6.24088,-2.3098 0.0189,-3.35717 5.13881,-21.57927 8.53141,-30.36383 8.87362,-22.97673 23.41805,-40.83658 40.45947,-49.68226 10.99912,-5.7093 17.869,-7.47146 29,-7.43863 15.40591,0.0454 27.02589,4.43161 37.03647,13.98008 3.10439,2.9611 6.16617,5.38381 6.80394,5.38381 0.63778,0 1.15959,0.86269 1.15959,1.91709 0,1.05441 0.91785,4.05835 2.03967,6.67545 3.00022,6.99923 2.28331,7.72309 -5.15958,5.20959 l -6.22003,-2.10054 -1.96319,2.3992 c -1.88432,2.30284 -1.93582,2.31128 -1.28197,0.21011 0.93631,-3.00885 -1.8138,-4.31129 -9.09916,-4.30935 -10.352,0.003 -16.31087,4.88041 -14.93327,12.22366 0.74023,3.94574 6.87625,13.58894 16.99779,26.71326 3.57929,4.64116 7.3166,10.04116 8.30515,12 2.76253,5.47405 4.39172,7.06153 7.24707,7.06153 2.7954,0 7.06752,2.47026 7.06752,4.08664 0,0.53528 -1.3542,-0.028 -3.00934,-1.25167 l -3.00934,-2.2249 -15.24066,3.36087 c -31.23109,6.88709 -31.93167,6.99776 -43.74066,6.90974 -6.325,-0.0472 -14.875,-0.66781 -19,-1.37925 z m 27.20716,-2.49745 c 8.56236,-0.83304 40.51338,-7.39118 41.67657,-8.55437 0.93068,-0.93069 -2.01469,-5.52239 -11.86966,-18.50424 -5.61377,-7.39495 -11.56407,-16.12027 -13.2229,-19.3896 -5.56998,-10.97767 -4.66336,-20.69035 2.56063,-27.43228 2.61945,-2.44466 5.6482,-2.33621 5.6482,0.20223 0,1.0189 2.06293,1.53182 7.75,1.92695 4.2625,0.29615 10.3375,1.41561 13.5,2.48768 3.1625,1.07208 5.75,1.72098 5.75,1.44199 0,-0.27898 -1.34707,-2.60647 -2.99349,-5.1722 -8.36772,-13.03995 -27.67804,-20.76217 -43.66143,-17.46025 -14.74407,3.0459 -30.10605,13.52164 -39.19001,26.72473 -9.45927,13.74857 -15.44285,32.24224 -15.57357,48.13377 l -0.0815,9.90838 10.5,2.38022 c 5.775,1.30912 14.55,2.75097 19.5,3.2041 4.95,0.45313 9.225,0.87415 9.5,0.93559 0.275,0.0615 4.86822,-0.31327 10.20716,-0.8327 z m 51.29284,-41.42134 c -1.65,-0.73649 -4.35,-2.80378 -6,-4.59398 l -3,-3.25491 4.60495,3.38313 c 2.53273,1.86071 5.45773,3.91916 6.5,4.57431 2.52649,1.5881 1.58769,1.53969 -2.10495,-0.10855 z m 19,-0.21301 c 0.55,-0.48135 2.79906,-2.44893 4.9979,-4.37241 l 3.99791,-3.49722 -2.99791,3.33606 c -1.64884,1.83483 -3.8979,3.80241 -4.9979,4.3724 -1.1,0.57 -1.55,0.64252 -1,0.16117 z m -15.04157,-34.30237 c 1.20334,-1.94705 7.90752,-3.08112 11.8231,-1.99997 2.04516,0.56469 3.71847,1.18956 3.71847,1.38858 0,0.19903 -2.3625,0.29038 -5.25,0.203 -2.8875,-0.0874 -6.5252,0.19667 -8.08379,0.63121 -1.84558,0.51456 -2.61548,0.43686 -2.20778,-0.22282 z"
     id="path121"
     inkscape:connector-curvature="0" /><path
     style="fill:#db242c"
     d="m -885.95078,360.55305 c -9.16467,-1.08923 -21.5025,-4.24399 -25.36569,-6.48596 l -2.63431,-1.52881 2.5,0.60401 c 1.375,0.33221 6.775,1.75698 12,3.16615 8.02141,2.16335 11.83461,2.58412 24.5,2.70347 8.25,0.0777 18.15,-0.15839 22,-0.52472 l 7,-0.66607 -5.39792,1.34137 c -7.39053,1.83652 -24.92185,2.54106 -34.60208,1.39056 z m -33.11706,-9.48309 c -3.9205,-1.93411 -5.67879,-5.50838 -4.38445,-8.91275 0.52361,-1.37718 1.17402,-2.50396 1.44537,-2.50396 0.27136,0 0.24784,0.63984 -0.0522,1.42186 -0.6771,1.7645 1.05169,5.21926 4.41767,8.82814 2.9501,3.16299 2.82598,3.26452 -1.42634,1.16671 z m 104.02661,-2.03927 c 17.32739,-7.4488 25.15896,-15.0752 23.25262,-22.64349 -0.54407,-2.16001 -0.5147,-2.16971 0.88757,-0.29282 5.25998,7.04031 -2.50709,15.92628 -19.72459,22.56605 -9.42561,3.6349 -12.63603,3.9041 -4.4156,0.37026 z m 19.37777,-26.24575 -2.71268,-0.63169 5.46268,-5.02368 c 5.64513,-5.19148 7.83445,-5.1228 2.40854,0.0756 -1.86816,1.78981 -2.87531,3.6099 -2.59362,4.68709 0.25329,0.96857 0.39015,1.7078 0.30414,1.64273 -0.086,-0.0651 -1.37709,-0.40258 -2.86906,-0.75 z m -123.78732,-11.00925 c 0,-2.66742 2.42143,-6.03434 3.53729,-4.91848 0.54759,0.54759 -2.28884,7.79604 -3.05071,7.79604 -0.26762,0 -0.48658,-1.2949 -0.48658,-2.87756 z m 49,1.37899 c -4.125,-0.71143 -12.45,-2.43839 -18.5,-3.83767 -6.05,-1.39929 -13.8125,-2.85419 -17.25,-3.23313 -4.81853,-0.53116 -6.24791,-1.06019 -6.24088,-2.3098 0.0189,-3.35717 5.13881,-21.57927 8.53141,-30.36383 8.87362,-22.97673 23.41805,-40.83658 40.45947,-49.68226 10.99912,-5.7093 17.869,-7.47146 29,-7.43863 15.40591,0.0454 27.02589,4.43161 37.03647,13.98008 3.10439,2.9611 6.16617,5.38381 6.80394,5.38381 0.63778,0 1.15959,0.86269 1.15959,1.91709 0,1.05441 0.91785,4.05835 2.03967,6.67545 3.00022,6.99923 2.28331,7.72309 -5.15958,5.20959 l -6.22003,-2.10054 -1.96319,2.3992 c -1.88432,2.30284 -1.93582,2.31128 -1.28197,0.21011 0.93631,-3.00885 -1.8138,-4.31129 -9.09916,-4.30935 -10.352,0.003 -16.31087,4.88041 -14.93327,12.22366 0.74023,3.94574 6.87625,13.58894 16.99779,26.71326 3.57929,4.64116 7.3166,10.04116 8.30515,12 2.76253,5.47405 4.39172,7.06153 7.24707,7.06153 2.7954,0 7.06752,2.47026 7.06752,4.08664 0,0.53528 -1.3542,-0.028 -3.00934,-1.25167 l -3.00934,-2.2249 -15.24066,3.36087 c -31.23109,6.88709 -31.93167,6.99776 -43.74066,6.90974 -6.325,-0.0472 -14.875,-0.66781 -19,-1.37925 z m 27.20716,-2.49745 c 8.56236,-0.83304 40.51338,-7.39118 41.67657,-8.55437 0.93068,-0.93069 -2.01469,-5.52239 -11.86966,-18.50424 -5.61377,-7.39495 -11.56407,-16.12027 -13.2229,-19.3896 -5.56998,-10.97767 -4.66336,-20.69035 2.56063,-27.43228 2.61945,-2.44466 5.6482,-2.33621 5.6482,0.20223 0,1.0189 2.06293,1.53182 7.75,1.92695 4.2625,0.29615 10.3375,1.41561 13.5,2.48768 3.1625,1.07208 5.75,1.72098 5.75,1.44199 0,-0.27898 -1.34707,-2.60647 -2.99349,-5.1722 -8.36772,-13.03995 -27.67804,-20.76217 -43.66143,-17.46025 -14.74407,3.0459 -30.10605,13.52164 -39.19001,26.72473 -9.45927,13.74857 -15.44285,32.24224 -15.57357,48.13377 l -0.0815,9.90838 10.5,2.38022 c 5.775,1.30912 14.55,2.75097 19.5,3.2041 4.95,0.45313 9.225,0.87415 9.5,0.93559 0.275,0.0615 4.86822,-0.31327 10.20716,-0.8327 z m 51.29284,-41.42134 c -1.65,-0.73649 -4.35,-2.80378 -6,-4.59398 l -3,-3.25491 4.60495,3.38313 c 2.53273,1.86071 5.45773,3.91916 6.5,4.57431 2.52649,1.5881 1.58769,1.53969 -2.10495,-0.10855 z m 19,-0.21301 c 0.55,-0.48135 2.79906,-2.44893 4.9979,-4.37241 l 3.99791,-3.49722 -2.99791,3.33606 c -1.64884,1.83483 -3.8979,3.80241 -4.9979,4.3724 -1.1,0.57 -1.55,0.64252 -1,0.16117 z m -15.04157,-34.30237 c 1.20334,-1.94705 7.90752,-3.08112 11.8231,-1.99997 2.04516,0.56469 3.71847,1.18956 3.71847,1.38858 0,0.19903 -2.3625,0.29038 -5.25,0.203 -2.8875,-0.0874 -6.5252,0.19667 -8.08379,0.63121 -1.84558,0.51456 -2.61548,0.43686 -2.20778,-0.22282 z"
     id="path119"
     inkscape:connector-curvature="0" /><path
     style="fill:#685856"
     d="m -885.95078,360.55305 c -9.16467,-1.08923 -21.5025,-4.24399 -25.36569,-6.48596 l -2.63431,-1.52881 2.5,0.60401 c 1.375,0.33221 6.775,1.75698 12,3.16615 8.02141,2.16335 11.83461,2.58412 24.5,2.70347 8.25,0.0777 18.15,-0.15839 22,-0.52472 l 7,-0.66607 -5.39792,1.34137 c -7.39053,1.83652 -24.92185,2.54106 -34.60208,1.39056 z m -33.11706,-9.48309 c -3.9205,-1.93411 -5.67879,-5.50838 -4.38445,-8.91275 0.52361,-1.37718 1.17402,-2.50396 1.44537,-2.50396 0.27136,0 0.24784,0.63984 -0.0522,1.42186 -0.6771,1.7645 1.05169,5.21926 4.41767,8.82814 2.9501,3.16299 2.82598,3.26452 -1.42634,1.16671 z m 104.02661,-2.03927 c 17.32739,-7.4488 25.15896,-15.0752 23.25262,-22.64349 -0.54407,-2.16001 -0.5147,-2.16971 0.88757,-0.29282 5.25998,7.04031 -2.50709,15.92628 -19.72459,22.56605 -9.42561,3.6349 -12.63603,3.9041 -4.4156,0.37026 z m 19.37777,-26.24575 -2.71268,-0.63169 5.46268,-5.02368 c 5.64513,-5.19148 7.83445,-5.1228 2.40854,0.0756 -1.86816,1.78981 -2.87531,3.6099 -2.59362,4.68709 0.25329,0.96857 0.39015,1.7078 0.30414,1.64273 -0.086,-0.0651 -1.37709,-0.40258 -2.86906,-0.75 z m -123.78732,-11.00925 c 0,-2.66742 2.42143,-6.03434 3.53729,-4.91848 0.54759,0.54759 -2.28884,7.79604 -3.05071,7.79604 -0.26762,0 -0.48658,-1.2949 -0.48658,-2.87756 z m 49,1.37899 c -4.125,-0.71143 -12.45,-2.43839 -18.5,-3.83767 -6.05,-1.39929 -13.8125,-2.85419 -17.25,-3.23313 -4.81853,-0.53116 -6.24791,-1.06019 -6.24088,-2.3098 0.0189,-3.35717 5.13881,-21.57927 8.53141,-30.36383 8.87362,-22.97673 23.41805,-40.83658 40.45947,-49.68226 10.99912,-5.7093 17.869,-7.47146 29,-7.43863 15.40591,0.0454 27.02589,4.43161 37.03647,13.98008 3.10439,2.9611 6.16617,5.38381 6.80394,5.38381 0.63778,0 1.15959,0.86269 1.15959,1.91709 0,1.05441 0.91785,4.05835 2.03967,6.67545 3.00022,6.99923 2.28331,7.72309 -5.15958,5.20959 l -6.22003,-2.10054 -1.96319,2.3992 c -1.88432,2.30284 -1.93582,2.31128 -1.28197,0.21011 0.93631,-3.00885 -1.8138,-4.31129 -9.09916,-4.30935 -10.352,0.003 -16.31087,4.88041 -14.93327,12.22366 0.74023,3.94574 6.87625,13.58894 16.99779,26.71326 3.57929,4.64116 7.3166,10.04116 8.30515,12 2.76253,5.47405 4.39172,7.06153 7.24707,7.06153 2.7954,0 7.06752,2.47026 7.06752,4.08664 0,0.53528 -1.3542,-0.028 -3.00934,-1.25167 l -3.00934,-2.2249 -15.24066,3.36087 c -31.23109,6.88709 -31.93167,6.99776 -43.74066,6.90974 -6.325,-0.0472 -14.875,-0.66781 -19,-1.37925 z m 50.85914,-6.41304 c 9.4812,-2.11901 17.48265,-4.09685 17.78101,-4.3952 1.23018,-1.23018 -1.32581,-5.44094 -11.55325,-19.03291 -13.42703,-17.84414 -16.57601,-23.96762 -16.58228,-32.24578 -0.004,-5.07342 0.47177,-6.77293 2.85986,-10.21895 4.6125,-6.65583 9.59968,-7.18972 5.71885,-0.61222 -1.19053,2.01781 -1.94429,3.88905 -1.67501,4.15832 0.26927,0.26927 1.92971,-0.0124 3.68986,-0.62603 4.61308,-1.60813 14.35288,-1.2739 22.15182,0.76015 8.06531,2.10352 8.45383,1.45451 3.62966,-6.06331 -8.98778,-14.00623 -28.08419,-21.79314 -46.76701,-19.07009 -16.09516,2.34589 -26.35693,7.6172 -38.55689,19.80605 -12.41104,12.39974 -21.22114,28.85557 -27.91449,52.13975 -3.59256,12.49743 -3.62703,12.31183 2.28675,12.31183 2.7104,0 10.83142,1.36416 18.0467,3.03146 26.44358,6.11058 39.74754,6.1219 66.88442,0.0569 z m 27.64086,-37.50575 c -1.65,-0.73649 -4.35,-2.80378 -6,-4.59398 l -3,-3.25491 4.60495,3.38313 c 2.53273,1.86071 5.45773,3.91916 6.5,4.57431 2.52649,1.5881 1.58769,1.53969 -2.10495,-0.10855 z m 19,-0.21301 c 0.55,-0.48135 2.79906,-2.44893 4.9979,-4.37241 l 3.99791,-3.49722 -2.99791,3.33606 c -1.64884,1.83483 -3.8979,3.80241 -4.9979,4.3724 -1.1,0.57 -1.55,0.64252 -1,0.16117 z m -15.04157,-34.30237 c 1.20334,-1.94705 7.90752,-3.08112 11.8231,-1.99997 2.04516,0.56469 3.71847,1.18956 3.71847,1.38858 0,0.19903 -2.3625,0.29038 -5.25,0.203 -2.8875,-0.0874 -6.5252,0.19667 -8.08379,0.63121 -1.84558,0.51456 -2.61548,0.43686 -2.20778,-0.22282 z"
     id="path117"
     inkscape:connector-curvature="0" /><path
     style="fill:#9e282c"
     d="m -872.95078,311.14557 c -3.85,-0.71021 -9.7,-1.98534 -13,-2.83361 -3.3,-0.84827 -8.925,-1.81498 -12.5,-2.14825 -13.82811,-1.28909 -13.33433,-1.05463 -12.65527,-6.00886 0.3287,-2.39818 2.22501,-9.45461 4.214,-15.68096 13.6539,-42.74216 40.11153,-67.27988 72.44127,-67.18453 14.78312,0.0436 25.98912,4.05316 35.68069,12.76671 5.07947,4.56688 12.4906,16.75922 11.05795,18.19187 -0.39539,0.39539 -5.04769,-0.30968 -10.33845,-1.56684 -12.406,-2.94783 -19.89925,-2.4591 -25.80478,1.68309 -2.4044,1.68647 -4.23449,3.83884 -4.43226,5.21279 -0.4983,3.46198 5.86122,15.40526 13.35254,25.07627 10.08611,13.02077 15.69905,21.64997 15.32412,23.55892 -0.34245,1.74354 -5.46191,3.17643 -30.33981,8.49186 -10.61927,2.26892 -31.90892,2.48753 -43,0.44154 z m 53.35914,-4.40393 c 9.4812,-2.11901 17.48265,-4.09685 17.78101,-4.3952 1.23018,-1.23018 -1.32581,-5.44094 -11.55325,-19.03291 -13.42703,-17.84414 -16.57601,-23.96762 -16.58228,-32.24578 -0.004,-5.07342 0.47177,-6.77293 2.85986,-10.21895 4.6125,-6.65583 9.59968,-7.18972 5.71885,-0.61222 -1.19053,2.01781 -1.94429,3.88905 -1.67501,4.15832 0.26927,0.26927 1.92971,-0.0124 3.68986,-0.62603 4.61308,-1.60813 14.35288,-1.2739 22.15182,0.76015 8.06531,2.10352 8.45383,1.45451 3.62966,-6.06331 -8.98778,-14.00623 -28.08419,-21.79314 -46.76701,-19.07009 -16.09516,2.34589 -26.35693,7.6172 -38.55689,19.80605 -12.41104,12.39974 -21.22114,28.85557 -27.91449,52.13975 -3.59256,12.49743 -3.62703,12.31183 2.28675,12.31183 2.7104,0 10.83142,1.36416 18.0467,3.03146 26.44358,6.11058 39.74754,6.1219 66.88442,0.0569 z"
     id="path115"
     inkscape:connector-curvature="0" /></g></g></g></g><text
   id="text896"
   y="3021.2461"
   x="-2303.5774"
   style="font-style:normal;font-weight:normal;font-size:40px;line-height:1.25;font-family:sans-serif;letter-spacing:0px;word-spacing:0px;fill:#000000;fill-opacity:1;stroke:none"
   xml:space="preserve"><tspan
     style="font-style:italic;font-variant:normal;font-weight:bold;font-stretch:normal;font-size:725.33331299px;font-family:'Lobster Two';-inkscape-font-specification:'Lobster Two Bold Italic'"
     y="3021.2461"
     x="-2303.5774"
     id="tspan894"
     sodipodi:role="line"><tspan
   id="tspan892"
   style="font-size:725.33331299px;fill:#00ff72;fill-opacity:1">Frut</tspan>me</tspan></text>


</g>
<g
   id="g8">
</g>
<g
   id="g10">
</g>
<g
   id="g12">
</g>
<g
   id="g14">
</g>
<g
   id="g16">
</g>
<g
   id="g18">
</g>
<g
   id="g20">
</g>
<g
   id="g22">
</g>
<g
   id="g24">
</g>
<g
   id="g26">
</g>
<g
   id="g28">
</g>
<g
   id="g30">
</g>
<g
   id="g32">
</g>
<g
   id="g34">
</g>
<g
   id="g36">
</g>
</svg>